<?xml version="1.0" encoding="utf-8"?>
<!-- Generator: Adobe Illustrator 24.0.2, SVG Export Plug-In . SVG Version: 6.00 Build 0)  -->
<svg version="1.1" id="Layer_1" xmlns="http://www.w3.org/2000/svg" xmlns:xlink="http://www.w3.org/1999/xlink" x="0px" y="0px"
	 width="159px" height="90px" viewBox="0 0 159 90" style="enable-background:new 0 0 159 90;" xml:space="preserve">
<style type="text/css">
	.Drop_x0020_Shadow{fill:none;}
	.Outer_x0020_Glow_x0020_5_x0020_pt{fill:none;}
	.Blue_x0020_Neon{fill:none;stroke:#8AACDA;stroke-width:7;stroke-linecap:round;stroke-linejoin:round;}
	.Chrome_x0020_Highlight{fill:url(#SVGID_1_);stroke:#FFFFFF;stroke-width:0.3629;stroke-miterlimit:1;}
	.Jive_GS{fill:#FFDD00;}
	.Alyssa_GS{fill:#A6D0E4;}
	.st0{fill:#FFDB9B;}
	.st1{fill:#FFD18E;}
	.st2{fill:#FCC381;}
</style>
<linearGradient id="SVGID_1_" gradientUnits="userSpaceOnUse" x1="-4" y1="-8" x2="-4" y2="-9">
	<stop  offset="0" style="stop-color:#656565"/>
	<stop  offset="0.618" style="stop-color:#1B1B1B"/>
	<stop  offset="0.6292" style="stop-color:#545454"/>
	<stop  offset="0.9831" style="stop-color:#3E3E3E"/>
</linearGradient>
<polygon class="st0" points="114,38.5 153.4,16 96.1,23.7 "/>
<polygon class="st0" points="153.4,16 70.3,9.6 91,21.3 "/>
<polygon class="st1" points="87,42.2 109.6,34.8 96.1,23.7 "/>
<polygon class="st2" points="90.3,21.1 87,42.2 96.6,24.2 153.4,16 "/>
<path class="st2" d="M98.5,42.3c0.1-0.2,0.2-0.4,0.3-0.6c0.2-0.3,0-0.8-0.3-0.9c-0.3-0.2-0.8,0-0.9,0.3c-0.1,0.2-0.2,0.4-0.3,0.6
	c-0.2,0.3,0,0.8,0.3,0.9C98,42.8,98.4,42.6,98.5,42.3z M96.4,46.3c0.2-0.3,0.3-0.5,0.5-0.8c0.2-0.3,0.1-0.7-0.3-0.9
	c-0.3-0.2-0.7-0.1-0.9,0.3c-0.2,0.3-0.3,0.5-0.5,0.8c-0.2,0.3-0.1,0.7,0.2,0.9C95.7,46.8,96.2,46.7,96.4,46.3z M93.9,50.2
	c0.2-0.2,0.4-0.5,0.5-0.8c0.2-0.3,0.1-0.7-0.2-1c-0.3-0.2-0.7-0.1-1,0.2c-0.2,0.3-0.3,0.5-0.5,0.7c-0.2,0.3-0.1,0.7,0.2,1
	C93.2,50.6,93.6,50.6,93.9,50.2L93.9,50.2z M91,53.9c0.2-0.2,0.4-0.5,0.6-0.7c0.2-0.3,0.2-0.7-0.1-1c-0.3-0.2-0.7-0.2-1,0.1
	c-0.2,0.2-0.4,0.5-0.6,0.7c-0.3,0.3-0.2,0.7,0.1,1C90.3,54.2,90.7,54.2,91,53.9z M87.6,57.1c0.2-0.2,0.5-0.4,0.7-0.6
	c0.3-0.2,0.3-0.7,0.1-1c-0.2-0.3-0.7-0.3-1-0.1c-0.2,0.2-0.5,0.4-0.7,0.6c-0.3,0.2-0.4,0.7-0.1,1C86.8,57.3,87.3,57.3,87.6,57.1z
	 M83.5,59.6c0.3-0.1,0.6-0.3,0.9-0.4c0.3-0.2,0.5-0.6,0.3-0.9c-0.2-0.3-0.6-0.5-0.9-0.3c-0.3,0.1-0.5,0.3-0.8,0.4
	c-0.3,0.2-0.5,0.6-0.3,0.9C82.8,59.6,83.2,59.7,83.5,59.6L83.5,59.6z M79,60.9c0.3,0,0.6-0.1,0.9-0.2c0.4-0.1,0.6-0.4,0.5-0.8
	c-0.1-0.4-0.4-0.6-0.8-0.5c-0.3,0.1-0.6,0.1-0.9,0.1c-0.4,0.1-0.6,0.4-0.6,0.8C78.2,60.6,78.6,60.9,79,60.9z M74.2,60.9
	c0.3,0,0.6,0.1,0.9,0.1c0.4,0,0.7-0.3,0.7-0.6c0-0.4-0.3-0.7-0.6-0.7c-0.3,0-0.6-0.1-0.9-0.1c-0.4,0-0.7,0.2-0.8,0.6
	C73.6,60.5,73.8,60.8,74.2,60.9z M69.6,59.8c0.3,0.1,0.6,0.2,0.9,0.3c0.4,0.1,0.7-0.1,0.8-0.5c0.1-0.4-0.1-0.7-0.5-0.8
	c-0.3-0.1-0.6-0.2-0.9-0.3c-0.4-0.1-0.7,0.1-0.9,0.5C69.1,59.3,69.3,59.7,69.6,59.8L69.6,59.8z M65.3,58.2c0.3,0.1,0.6,0.2,0.9,0.4
	c0.3,0.1,0.8,0,0.9-0.4c0.1-0.3,0-0.8-0.4-0.9c-0.3-0.1-0.6-0.2-0.8-0.4c-0.3-0.2-0.8,0-0.9,0.4C64.8,57.6,65,58,65.3,58.2z
	 M61.1,56.2c0.3,0.1,0.5,0.3,0.8,0.4c0.3,0.2,0.8,0,0.9-0.3c0.2-0.3,0-0.8-0.3-0.9c-0.3-0.1-0.5-0.3-0.8-0.4c-0.3-0.2-0.8,0-0.9,0.3
	C60.7,55.6,60.8,56,61.1,56.2L61.1,56.2z M57.1,54c0.3,0.1,0.5,0.3,0.8,0.4c0.3,0.2,0.7,0.1,0.9-0.3c0.2-0.3,0.1-0.7-0.3-0.9
	c-0.3-0.1-0.5-0.3-0.8-0.4c-0.3-0.2-0.7-0.1-0.9,0.3C56.6,53.4,56.7,53.9,57.1,54z M53.1,51.9c0.3,0.1,0.5,0.3,0.8,0.4
	c0.3,0.2,0.8,0.1,0.9-0.3c0.2-0.3,0.1-0.7-0.3-0.9c-0.3-0.1-0.5-0.3-0.8-0.4c-0.3-0.2-0.7-0.1-0.9,0.3
	C52.6,51.3,52.7,51.7,53.1,51.9L53.1,51.9z M49,49.8c0.3,0.1,0.5,0.3,0.8,0.4c0.3,0.2,0.8,0,0.9-0.3s0-0.8-0.3-0.9
	c-0.3-0.1-0.5-0.3-0.8-0.4c-0.3-0.2-0.8,0-0.9,0.3C48.5,49.2,48.7,49.6,49,49.8z M44.9,47.8c0.3,0.1,0.6,0.2,0.8,0.4
	c0.3,0.2,0.8,0,0.9-0.3c0.2-0.3,0-0.8-0.3-0.9c-0.3-0.1-0.6-0.2-0.8-0.4c-0.3-0.1-0.8,0-0.9,0.4C44.4,47.3,44.6,47.7,44.9,47.8z
	 M40.7,46.3c0.3,0.1,0.6,0.2,0.9,0.3c0.4,0.1,0.7-0.1,0.9-0.4c0.1-0.4-0.1-0.7-0.4-0.9c-0.3-0.1-0.6-0.2-0.9-0.3
	c-0.4-0.1-0.7,0.1-0.9,0.4C40.1,45.8,40.3,46.1,40.7,46.3L40.7,46.3z M36.3,45.1c0.3,0.1,0.6,0.1,0.9,0.2c0.4,0.1,0.7-0.2,0.8-0.5
	c0.1-0.4-0.2-0.7-0.5-0.8c-0.3-0.1-0.6-0.1-0.9-0.2c-0.4-0.1-0.7,0.2-0.8,0.5C35.7,44.7,36,45.1,36.3,45.1L36.3,45.1z M31.9,44.6
	c0.3,0,0.6,0,0.9,0c0.4,0,0.7-0.3,0.7-0.6c0-0.4-0.3-0.7-0.6-0.7c-0.3,0-0.6,0-0.9,0c-0.4,0-0.7,0.3-0.7,0.7
	C31.2,44.3,31.5,44.6,31.9,44.6L31.9,44.6z M27.5,44.9c0.3,0,0.6-0.1,0.9-0.1c0.4,0,0.6-0.4,0.6-0.8c0-0.4-0.4-0.6-0.8-0.6
	c-0.3,0-0.6,0.1-0.9,0.1c-0.4,0.1-0.6,0.4-0.6,0.8C26.7,44.7,27.1,44.9,27.5,44.9L27.5,44.9z M23.2,46L23.2,46
	c0.3-0.1,0.6-0.2,0.8-0.3c0.4-0.1,0.6-0.5,0.5-0.9c-0.1-0.4-0.5-0.6-0.9-0.5c-0.3,0.1-0.6,0.2-0.9,0.3l0,0c-0.4,0.1-0.5,0.5-0.4,0.9
	C22.4,45.9,22.8,46.1,23.2,46L23.2,46z M19.1,47.8c0.3-0.1,0.5-0.3,0.8-0.4c0.3-0.2,0.5-0.6,0.3-0.9c-0.2-0.3-0.6-0.5-0.9-0.3
	c-0.3,0.1-0.6,0.3-0.8,0.5c-0.3,0.2-0.4,0.6-0.2,0.9C18.4,47.9,18.8,48,19.1,47.8L19.1,47.8z M15.6,50.4c0.2-0.2,0.4-0.4,0.7-0.6
	c0.3-0.2,0.3-0.7,0.1-1c-0.2-0.3-0.7-0.3-1-0.1c-0.2,0.2-0.5,0.4-0.7,0.6c-0.3,0.3-0.3,0.7-0.1,1C14.8,50.6,15.3,50.7,15.6,50.4z
	 M12.6,53.7c0.2-0.2,0.4-0.5,0.5-0.7c0.2-0.3,0.2-0.7-0.1-1c-0.3-0.2-0.7-0.2-1,0.1c-0.2,0.2-0.4,0.5-0.6,0.7
	c-0.2,0.3-0.2,0.7,0.1,1C11.9,54,12.3,54,12.6,53.7L12.6,53.7z M10.2,57.4c0.1-0.3,0.3-0.5,0.4-0.8c0.2-0.3,0.1-0.7-0.3-0.9
	C10,55.5,9.6,55.6,9.4,56c-0.2,0.3-0.3,0.5-0.4,0.8c-0.2,0.3,0,0.8,0.3,0.9C9.6,57.9,10,57.8,10.2,57.4L10.2,57.4z M8.4,61.5
	c0.1-0.3,0.2-0.6,0.3-0.8c0.1-0.4,0-0.8-0.4-0.9c-0.4-0.1-0.8,0-0.9,0.4c-0.1,0.3-0.2,0.6-0.3,0.9c-0.1,0.4,0.1,0.8,0.4,0.9
	C7.8,62.1,8.2,61.9,8.4,61.5L8.4,61.5z M7,65.8c0.1-0.3,0.1-0.5,0.2-0.8l0-0.1c0.1-0.4-0.1-0.7-0.5-0.8C6.4,64,6,64.2,5.9,64.6
	l0,0.1c-0.1,0.3-0.1,0.6-0.2,0.8c-0.1,0.4,0.1,0.7,0.5,0.8C6.6,66.4,6.9,66.2,7,65.8z M6.2,70.3c0-0.3,0.1-0.6,0.1-0.9
	c0.1-0.4-0.2-0.7-0.6-0.8c-0.4-0.1-0.7,0.2-0.8,0.6c-0.1,0.3-0.1,0.6-0.2,0.9c-0.1,0.4,0.2,0.7,0.6,0.8C5.7,70.9,6.1,70.6,6.2,70.3z
	 M5.6,74.8c0-0.3,0-0.6,0.1-0.9c0-0.4-0.2-0.7-0.6-0.7c-0.4,0-0.7,0.2-0.7,0.6c0,0.3-0.1,0.6-0.1,0.9c0,0.4,0.3,0.7,0.6,0.7
	C5.3,75.4,5.6,75.1,5.6,74.8z M5.5,79.3c0-0.3,0-0.6,0-0.9c0-0.4-0.3-0.7-0.7-0.7c-0.4,0-0.7,0.3-0.7,0.7c0,0.3,0,0.6,0,0.9
	c0,0.4,0.3,0.7,0.7,0.7C5.1,80,5.5,79.7,5.5,79.3L5.5,79.3z M5.6,83.8L5.6,83.8c0-0.1,0-0.4-0.1-0.9c0-0.4-0.3-0.7-0.7-0.6
	c-0.4,0-0.7,0.3-0.6,0.7c0,0.6,0.1,0.9,0.1,0.9c0,0.4,0.4,0.7,0.8,0.6C5.4,84.5,5.7,84.2,5.6,83.8L5.6,83.8z"/>
</svg>
