<?xml version="1.0" encoding="utf-8"?>
<!-- Generator: Adobe Illustrator 24.0.2, SVG Export Plug-In . SVG Version: 6.00 Build 0)  -->
<svg version="1.1" id="Capa_1" xmlns="http://www.w3.org/2000/svg" xmlns:xlink="http://www.w3.org/1999/xlink" x="0px" y="0px"
	 width="1930.3px" height="1047.4px" viewBox="0 0 1930.3 1047.4" style="enable-background:new 0 0 1930.3 1047.4;"
	 xml:space="preserve">
<style type="text/css">
	._x005B_Por_x0020_defecto_x005D_{fill:#FFFFFF;stroke:#000000;stroke-miterlimit:10;}
	.Esquinas_x0020_redondeadas_x0020_2_x0020_pt_x002E_{fill:#FFFFFF;stroke:#000000;stroke-miterlimit:10;}
	.Reflejo_x0020_vivo_x0020_X{fill:none;}
	.Bisel_x0020_suave{fill:url(#SVGID_1_);}
	.Atardecer{fill:#FFFFFF;}
	.Pompadour_GS{fill-rule:evenodd;clip-rule:evenodd;fill:#44ADE2;}
	.st0{fill:#FFDB9B;}
	.st1{fill:#FFD18F;}
	.st2{fill:#FDC382;}
</style>
<linearGradient id="SVGID_1_" gradientUnits="userSpaceOnUse" x1="-191.678" y1="1629.6162" x2="-190.9709" y2="1630.3234">
	<stop  offset="0" style="stop-color:#DEDFE3"/>
	<stop  offset="0.1738" style="stop-color:#D8D9DD"/>
	<stop  offset="0.352" style="stop-color:#C9CACD"/>
	<stop  offset="0.5323" style="stop-color:#B4B5B8"/>
	<stop  offset="0.7139" style="stop-color:#989A9C"/>
	<stop  offset="0.8949" style="stop-color:#797C7E"/>
	<stop  offset="1" style="stop-color:#656B6C"/>
</linearGradient>
<polygon class="st0" points="1418.8,427.9 1924.1,140.5 1189.6,239 "/>
<polygon class="st0" points="1924.1,140.5 859.1,57.5 1124.1,207.5 "/>
<polygon class="st1" points="1072.7,475.9 1362.5,381.6 1189.6,239 "/>
<polygon class="st2" points="1115.5,205.2 1072.7,475.9 1196.6,244.8 1924.1,140.5 "/>
<path class="st2" d="M1221.1,477c1.2-2.5,2.5-5,3.7-7.5c2.1-4.4,0.4-9.6-4-11.8c-4.4-2.2-9.6-0.4-11.8,4c-1.2,2.5-2.4,4.9-3.7,7.3
	c-2.2,4.3-0.4,9.6,3.9,11.8C1213.6,483,1218.9,481.3,1221.1,477z M1193,529c2-3.4,3.9-6.8,5.9-10.3c2.4-4.2,0.9-9.6-3.3-12
	c-4.2-2.4-9.6-0.9-12,3.3c-1.9,3.4-3.9,6.8-5.8,10.1c-2.4,4.2-1,9.6,3.2,12C1185.1,534.6,1190.5,533.2,1193,529z M1161,579
	c2.3-3.2,4.5-6.5,6.8-9.8c2.7-4,1.7-9.5-2.4-12.2c-4-2.7-9.5-1.7-12.2,2.4c-2.2,3.2-4.4,6.4-6.6,9.5c-2.8,4-1.8,9.5,2.1,12.3
	C1152.7,583.9,1158.2,583,1161,579L1161,579z M1124,625.7c2.6-2.9,5.3-5.9,7.9-9c3.2-3.7,2.7-9.2-1-12.4c-3.7-3.2-9.2-2.7-12.4,1
	c-2.5,3-5,5.8-7.6,8.6c-3.3,3.6-3,9.2,0.6,12.4C1115.2,629.6,1120.7,629.3,1124,625.7z M1080.3,666.9c3.1-2.4,6.2-5,9.4-7.6
	c3.7-3.1,4.2-8.7,1-12.4c-3.1-3.7-8.7-4.2-12.4-1c-2.9,2.5-5.9,4.9-8.8,7.2c-3.8,3-4.5,8.5-1.5,12.3
	C1070.9,669.2,1076.5,669.9,1080.3,666.9z M1028.6,698.4c3.7-1.6,7.3-3.4,11-5.3c4.3-2.2,6-7.5,3.8-11.8c-2.2-4.3-7.5-6-11.8-3.8
	c-3.4,1.7-6.8,3.4-10.1,4.9c-4.4,2-6.4,7.2-4.4,11.6C1018.9,698.4,1024.1,700.4,1028.6,698.4L1028.6,698.4z M970,715.1
	c4-0.5,8-1.2,12.1-2c4.8-0.9,7.9-5.5,7-10.3c-0.9-4.8-5.5-7.9-10.3-7c-3.7,0.7-7.4,1.3-11.1,1.8c-4.8,0.6-8.2,5.1-7.5,9.9
	C960.8,712.3,965.2,715.7,970,715.1z M909.3,715.1c4,0.5,8,0.9,12.1,1.2c4.8,0.4,9.1-3.2,9.5-8.1c0.4-4.8-3.2-9.1-8.1-9.5
	c-3.7-0.3-7.5-0.7-11.3-1.1c-4.8-0.6-9.2,2.8-9.8,7.6C901.1,710.1,904.5,714.4,909.3,715.1z M850.6,701.9c3.8,1.2,7.7,2.3,11.5,3.4
	c4.7,1.3,9.5-1.4,10.9-6.1c1.3-4.7-1.4-9.5-6.1-10.8c-3.7-1-7.3-2.1-11-3.3c-4.6-1.5-9.6,1.1-11,5.8
	C843.4,695.6,846,700.5,850.6,701.9L850.6,701.9z M794.9,680.8c3.6,1.6,7.3,3.2,10.9,4.7c4.5,1.9,9.6-0.2,11.5-4.7
	c1.9-4.5-0.2-9.6-4.7-11.5c-3.5-1.5-7.1-3-10.6-4.6c-4.4-2-9.6,0.1-11.6,4.5C788.5,673.7,790.5,678.8,794.9,680.8z M741.6,655.2
	c3.5,1.8,7,3.6,10.5,5.3c4.3,2.2,9.6,0.4,11.8-3.9c2.2-4.3,0.4-9.6-3.9-11.8c-3.5-1.7-6.9-3.5-10.4-5.3c-4.3-2.2-9.6-0.5-11.8,3.8
	C735.5,647.7,737.3,653,741.6,655.2L741.6,655.2z M689.6,627.6c3.5,1.9,6.9,3.7,10.3,5.6c4.3,2.3,9.6,0.7,11.9-3.6
	c2.3-4.3,0.7-9.6-3.6-11.9c-3.4-1.8-6.9-3.7-10.3-5.6c-4.3-2.3-9.6-0.7-11.9,3.5C683.7,620,685.3,625.3,689.6,627.6z M638,599.6
	c3.4,1.8,6.9,3.7,10.3,5.6c4.3,2.3,9.6,0.7,11.9-3.6c2.3-4.3,0.7-9.6-3.6-11.9c-3.5-1.9-6.9-3.7-10.4-5.6c-4.3-2.3-9.6-0.7-11.9,3.6
	C632.2,592,633.8,597.3,638,599.6L638,599.6z M586.2,572.7c3.5,1.7,6.9,3.5,10.4,5.2c4.3,2.2,9.6,0.5,11.8-3.9
	c2.2-4.3,0.5-9.6-3.9-11.8c-3.5-1.8-7-3.5-10.5-5.3c-4.3-2.2-9.6-0.4-11.8,4C580.1,565.3,581.9,570.5,586.2,572.7z M533.5,548.2
	c3.6,1.5,7.1,3.1,10.6,4.6c4.4,2,9.6,0,11.6-4.5s0-9.6-4.5-11.6c-3.6-1.6-7.2-3.2-10.9-4.7c-4.5-1.9-9.6,0.2-11.5,4.6
	C527,541.2,529.1,546.3,533.5,548.2z M479.5,527.8c3.6,1.2,7.3,2.4,10.9,3.7c4.6,1.6,9.6-0.8,11.2-5.4c1.6-4.6-0.8-9.6-5.4-11.2
	c-3.7-1.3-7.5-2.6-11.3-3.8c-4.6-1.5-9.6,1-11.1,5.7C472.3,521.4,474.8,526.3,479.5,527.8L479.5,527.8z M423.8,513.4
	c3.8,0.7,7.5,1.5,11.2,2.3c4.7,1,9.4-2,10.5-6.7c1-4.8-2-9.4-6.7-10.5c-3.9-0.9-7.8-1.7-11.7-2.4c-4.8-0.9-9.4,2.2-10.3,7
	C415.9,507.9,419,512.5,423.8,513.4L423.8,513.4z M367,507c3.8,0.1,7.6,0.3,11.4,0.5c4.8,0.3,9-3.4,9.3-8.2c0.3-4.8-3.4-9-8.2-9.3
	c-4-0.3-8-0.5-12-0.6c-4.9-0.2-8.9,3.7-9.1,8.5C358.3,502.8,362.1,506.8,367,507L367,507z M310.1,510.3c3.8-0.6,7.5-1.1,11.3-1.5
	c4.8-0.5,8.3-4.9,7.7-9.7c-0.5-4.8-4.9-8.3-9.7-7.7c-4,0.4-8,1-11.9,1.6c-4.8,0.7-8.1,5.2-7.4,10C300.8,507.7,305.3,511,310.1,510.3
	L310.1,510.3z M254.8,524l0.2-0.1c3.6-1.2,7.1-2.4,10.7-3.5c4.6-1.4,7.3-6.3,5.8-11c-1.4-4.6-6.3-7.3-11-5.8
	c-3.7,1.1-7.5,2.4-11.3,3.7l-0.2,0.1c-4.6,1.6-7,6.6-5.5,11.2C245.2,523.1,250.2,525.6,254.8,524L254.8,524z M203.2,547.6
	c3.2-1.9,6.6-3.7,9.9-5.5c4.3-2.3,5.9-7.6,3.7-11.9c-2.3-4.3-7.6-5.9-11.9-3.7c-3.6,1.9-7.1,3.9-10.6,5.9c-4.2,2.5-5.6,7.8-3.2,12
	C193.6,548.6,199,550,203.2,547.6L203.2,547.6z M157.3,581c2.8-2.5,5.7-5,8.6-7.4c3.7-3.1,4.3-8.6,1.2-12.4
	c-3.1-3.7-8.6-4.3-12.4-1.2c-3.1,2.6-6.2,5.2-9.1,7.9c-3.6,3.2-3.9,8.8-0.7,12.4C148.2,584,153.7,584.3,157.3,581z M118.9,623
	c2.3-3,4.6-6,7-8.9c3.1-3.8,2.5-9.3-1.2-12.4c-3.8-3.1-9.3-2.5-12.4,1.3c-2.5,3.1-5,6.3-7.4,9.5c-2.9,3.9-2.2,9.4,1.7,12.3
	C110.5,627.6,116,626.8,118.9,623L118.9,623z M88.3,671.2c1.8-3.4,3.6-6.7,5.5-10c2.4-4.2,0.9-9.6-3.3-12c-4.2-2.4-9.6-0.9-12,3.3
	c-2,3.5-3.9,7-5.8,10.5c-2.3,4.3-0.6,9.6,3.7,11.9C80.8,677.1,86.1,675.5,88.3,671.2L88.3,671.2z M65.1,723.7
	c1.3-3.6,2.7-7.2,4.1-10.7c1.8-4.5-0.4-9.6-4.9-11.4c-4.5-1.8-9.6,0.4-11.4,4.9c-1.5,3.7-2.9,7.4-4.3,11.1
	c-1.7,4.6,0.6,9.6,5.2,11.3C58.3,730.6,63.4,728.2,65.1,723.7L65.1,723.7z M48.2,778.8c0.9-3.4,1.7-6.9,2.7-10.3l0.2-0.9
	c1.3-4.7-1.5-9.5-6.2-10.8c-4.7-1.3-9.5,1.5-10.8,6.2l-0.2,0.9c-1,3.5-1.9,7.1-2.7,10.6c-1.2,4.7,1.7,9.5,6.4,10.7
	C42.3,786.4,47,783.5,48.2,778.8z M36.8,835.5c0.6-3.8,1.2-7.6,1.9-11.4c0.8-4.8-2.4-9.3-7.2-10.2c-4.8-0.8-9.3,2.4-10.2,7.2
	c-0.7,3.9-1.3,7.8-1.9,11.7c-0.7,4.8,2.5,9.3,7.3,10C31.6,843.6,36.1,840.3,36.8,835.5z M30.2,893.1c0.3-3.8,0.6-7.7,1-11.6
	c0.4-4.8-3.1-9.1-8-9.6c-4.8-0.4-9.1,3.1-9.6,8c-0.4,4-0.7,7.9-1,11.8c-0.4,4.8,3.3,9.1,8.1,9.4C25.6,901.6,29.8,898,30.2,893.1z
	 M27.9,951.1c0-3.7,0.1-7.6,0.1-11.6c0.1-4.9-3.8-8.9-8.6-9c-4.9-0.1-8.9,3.8-9,8.6c-0.1,4.1-0.1,8.1-0.1,11.9
	c0,4.9,3.9,8.8,8.8,8.8C23.9,959.9,27.9,956,27.9,951.1L27.9,951.1z M30,1008.9l0-0.2c-0.1-0.8-0.4-4.7-0.9-11.2
	c-0.3-4.9-4.5-8.5-9.3-8.2c-4.8,0.3-8.5,4.5-8.2,9.3c0.5,7.7,0.9,12,0.9,12.1c0.5,4.8,4.8,8.4,9.6,7.9
	C27,1018,30.5,1013.7,30,1008.9L30,1008.9z"/>
</svg>
